<svg width="26" height="26" viewBox="0 0 26 26" fill="none" xmlns="http://www.w3.org/2000/svg">
<path fill-rule="evenodd" clip-rule="evenodd" d="M9.75856 0.035675H0.0344238V12.5185H9.75856L12.0689 9.98629V7.56105L10.9999 6.2771L12.0689 5.10015V2.42525L9.75856 0.035675ZM3.10339 2.42525H8.34477L8.96546 3.13856V4.42251L8.34477 5.10015H3.10339V2.42525ZM8.34477 7.56105H3.10339V9.98629H8.55166L8.96546 9.52264V8.27436L8.34477 7.56105Z" fill="#030303"/>
<path d="M17.0345 8.738V0H13.8966V9.87929L16.4828 12.4472H26V9.87929H18.1034L17.0345 8.738Z" fill="#030303"/>
<path d="M3.2069 13.4458H0V23.6104L2.44828 26H9.96552L12.1379 23.6104V13.4458H8.96552V22.1838L8 23.2538H4.2069L3.2069 22.1838V13.4458Z" fill="#030303"/>
<path fill-rule="evenodd" clip-rule="evenodd" d="M13.8966 13.4458H23.6207L26 16.1207V18.6173L24.8621 19.7942L26 20.8285V26H23V21.6488L22.4828 21.1495H17.2069V26H13.8966V13.4458ZM17.2069 16.1207H22.4828L23 16.6557V17.8683L22.4828 18.6173H17.2069V16.1207Z" fill="#030303"/>
<path d="M17.0345 8.738V0H13.8966V9.87929L16.4828 12.4472H26V9.87929H18.1034L17.0345 8.738Z" stroke="#030303"/>
<path d="M3.2069 13.4458H0V23.6104L2.44828 26H9.96552L12.1379 23.6104V13.4458H8.96552V22.1838L8 23.2538H4.2069L3.2069 22.1838V13.4458Z" stroke="#030303"/>
<path fill-rule="evenodd" clip-rule="evenodd" d="M13.8966 13.4458H23.6207L26 16.1207V18.6173L24.8621 19.7942L26 20.8285V26H23V21.6488L22.4828 21.1495H17.2069V26H13.8966V13.4458ZM17.2069 16.1207H22.4828L23 16.6557V17.8683L22.4828 18.6173H17.2069V16.1207Z" stroke="#030303"/>
</svg>
