<svg width="26" height="26" viewBox="0 0 26 26" fill="none" xmlns="http://www.w3.org/2000/svg">
<g clip-path="url(#clip0_239_1693)">
<path d="M22.0107 4.72387C20.3248 3.95015 18.5458 3.39794 16.7181 3.08099C16.7015 3.0782 16.6845 3.08061 16.6694 3.08789C16.6543 3.09516 16.6418 3.10695 16.6336 3.12162C16.4045 3.52787 16.151 4.05924 15.9738 4.47524C14.0037 4.17626 11.9997 4.17626 10.0296 4.47524C9.83201 4.01183 9.60849 3.5599 9.36009 3.12162C9.35176 3.10711 9.33922 3.09546 9.32414 3.08821C9.30906 3.08096 9.29213 3.07844 9.27559 3.08099C7.44747 3.39624 5.66809 3.94874 3.98297 4.72387C3.96855 4.72937 3.95649 4.73971 3.94884 4.75312C0.578591 9.78899 -0.346034 14.7014 0.107341 19.552C0.108966 19.5747 0.123591 19.5975 0.141466 19.6121C2.10402 21.0659 4.29918 22.1758 6.63334 22.8946C6.64982 22.8998 6.66753 22.8996 6.6839 22.8941C6.70026 22.8885 6.71443 22.8779 6.72434 22.8637C7.22484 22.1812 7.67009 21.4614 8.05359 20.7041C8.06158 20.6885 8.06432 20.6708 8.06139 20.6535C8.05846 20.6362 8.05003 20.6203 8.03734 20.6082C8.02894 20.6003 8.01898 20.5942 8.00809 20.5904C7.30798 20.3213 6.62992 19.998 5.98009 19.6235C5.96194 19.6132 5.94844 19.5963 5.94239 19.5764C5.93634 19.5564 5.9382 19.5349 5.94759 19.5162C5.95312 19.5041 5.96148 19.4936 5.97197 19.4854C6.10847 19.383 6.24497 19.2757 6.37497 19.1685C6.38645 19.1593 6.40023 19.1533 6.41483 19.1513C6.42943 19.1493 6.44429 19.1513 6.45784 19.1571C10.7137 21.1006 15.3206 21.1006 19.5245 19.1571C19.5385 19.151 19.5539 19.1489 19.5691 19.1509C19.5843 19.1529 19.5986 19.159 19.6106 19.1685C19.7406 19.2757 19.8771 19.383 20.0136 19.4854C20.0247 19.4935 20.0335 19.5041 20.0395 19.5165C20.0454 19.5289 20.0481 19.5425 20.0475 19.5562C20.0468 19.5699 20.0428 19.5832 20.0358 19.5949C20.0287 19.6067 20.0189 19.6165 20.0071 19.6235C19.3587 20.0015 18.6798 20.3243 17.9775 20.5887C17.9663 20.5928 17.9561 20.5993 17.9477 20.6077C17.9392 20.6161 17.9328 20.6263 17.9287 20.6375C17.925 20.6483 17.9235 20.6599 17.9243 20.6713C17.9251 20.6828 17.9283 20.6939 17.9336 20.7041C18.3236 21.4597 18.7705 22.1812 19.2612 22.8637C19.2711 22.8779 19.2853 22.8885 19.3017 22.8941C19.318 22.8996 19.3357 22.8998 19.3522 22.8946C21.6903 22.178 23.889 21.068 25.8538 19.6121C25.8637 19.6053 25.8719 19.5964 25.8778 19.586C25.8837 19.5755 25.8872 19.5639 25.888 19.552C26.4307 13.9441 24.9796 9.07237 22.0432 4.75474C22.0403 4.74761 22.0358 4.74118 22.0302 4.73586C22.0246 4.73054 22.018 4.72646 22.0107 4.72387ZM8.68897 16.5977C7.40684 16.5977 6.35222 15.4212 6.35222 13.9782C6.35222 12.5336 7.38734 11.3571 8.68897 11.3571C10.0003 11.3571 11.0452 12.5434 11.0257 13.9782C11.0257 15.4212 9.99059 16.5977 8.68897 16.5977ZM17.3275 16.5977C16.047 16.5977 14.9907 15.4212 14.9907 13.9782C14.9907 12.5336 16.0258 11.3571 17.3275 11.3571C18.6388 11.3571 19.6853 12.5434 19.6642 13.9782C19.6642 15.4212 18.6388 16.5977 17.3275 16.5977Z" fill="black"/>
</g>
<defs>
<clipPath id="clip0_239_1693">
<rect width="26" height="26" fill="white"/>
</clipPath>
</defs>
</svg>
