<svg width="26" height="30" viewBox="0 0 26 30" fill="none" xmlns="http://www.w3.org/2000/svg">
<path d="M17.5093 3.97331C19.2434 2.04431 21.7804 2.00412 23.1843 3.56608C24.5919 5.13071 24.5544 7.95992 22.8179 9.88892L19.8879 13.1481C19.7229 13.3379 19.6318 13.5918 19.6342 13.8552C19.6366 14.1187 19.7323 14.3705 19.9007 14.5565C20.0691 14.7426 20.2968 14.8479 20.5346 14.8498C20.7724 14.8517 21.0013 14.75 21.1722 14.5667L24.1034 11.3075C26.4143 8.73687 26.7045 4.63373 24.4698 2.14746C22.2327 -0.340149 18.536 -0.0159696 16.2227 2.55469L10.3627 9.07445C8.05179 11.6451 7.76157 15.7483 9.99626 18.2332C10.0797 18.3293 10.1796 18.4061 10.2902 18.459C10.4007 18.512 10.5196 18.54 10.64 18.5414C10.7605 18.5429 10.8799 18.5178 10.9915 18.4676C11.103 18.4173 11.2044 18.343 11.2898 18.2489C11.3751 18.1548 11.4427 18.0428 11.4886 17.9195C11.5344 17.7961 11.5577 17.6639 11.5569 17.5305C11.5562 17.3971 11.5314 17.2652 11.4842 17.1426C11.4369 17.0199 11.3681 16.9088 11.2817 16.8159C9.87413 15.2513 9.91282 12.4221 11.6481 10.4931L17.5093 3.97331Z" fill="black"/>
<path d="M16.005 11.4562C15.835 11.2674 15.6043 11.1611 15.3636 11.1607C15.1228 11.1604 14.8918 11.2659 14.7214 11.4542C14.5509 11.6425 14.455 11.8981 14.4546 12.1648C14.4543 12.4315 14.5496 12.6874 14.7196 12.8762C16.1271 14.4408 16.0896 17.2687 14.3532 19.199L8.49191 25.7175C6.75664 27.6465 4.21963 27.6867 2.81569 26.1247C1.40812 24.5601 1.44682 21.7309 3.18209 19.8019L6.11332 16.5426C6.1974 16.4491 6.26404 16.3382 6.30942 16.2162C6.35481 16.0942 6.37805 15.9634 6.37783 15.8314C6.3776 15.6995 6.35392 15.5688 6.30812 15.447C6.26232 15.3251 6.1953 15.2145 6.1109 15.1213C6.0265 15.0282 5.92636 14.9544 5.8162 14.9041C5.70605 14.8538 5.58803 14.8281 5.46889 14.8283C5.34975 14.8286 5.23182 14.8548 5.12184 14.9056C5.01186 14.9563 4.91197 15.0305 4.82788 15.124L1.89666 18.3832C-0.414218 20.9552 -0.704438 25.057 1.53026 27.5433C3.76737 30.0323 7.46405 29.7067 9.77735 27.1361L15.6386 20.6163C17.9495 18.047 18.2397 13.9412 16.005 11.4562Z" fill="black"/>
</svg>
