<svg width="26" height="26" viewBox="0 0 26 26" fill="none" xmlns="http://www.w3.org/2000/svg">
<path d="M6.30277 17.7679H0.16861L0.00969387 17.9445C-0.117439 20.4313 1.03735 22.466 1.63064 23.1724C3.38507 25.5179 5.87899 26.0337 6.90665 25.9983C6.93463 25.9007 16.4974 25.9998 17.9672 25.9983C19.437 25.9969 20.2214 25.3858 21.3044 23.7023C22.3875 22.0188 22.9042 21.0295 23.4657 20.0993C23.7454 19.5341 24.9383 18.8041 25.4998 18.5097C25.7309 18.4126 25.8447 18.3598 25.8812 18.2978C25.9177 18.2358 25.9339 18.197 25.9548 18.1212C25.9758 18.0453 26.0451 16.7181 25.9548 16.5669C25.8646 16.4158 25.8308 16.4078 25.7223 16.4256C25.6138 16.4434 19.2385 18.5097 19.2385 18.5097C19.2385 18.5097 18.4158 19.4076 17.9672 19.9227C17.5186 20.4378 17.1829 20.5716 16.5052 20.6645C15.8274 20.7573 14.0579 20.6645 14.0579 20.6645V18.0505H16.0284C16.0284 18.0505 16.6959 17.45 18.2532 15.2246C19.8106 12.9992 19.681 11.2065 18.7618 9.0783C17.8426 6.95008 15.4881 4.70993 14.3121 3.67377L14.0579 3.60312C14.01 3.55012 14.1366 2.06682 14.0579 1.23644C13.9791 0.406059 13.514 0.00945468 12.8819 0.00010907C12.2407 -0.00937068 11.7059 0.600613 11.6741 1.23644C11.6423 1.87226 11.6741 2.89665 11.6741 2.89665L8.55937 1.94291L8.49581 2.11953C12.9089 10.6799 10.6946 14.4979 8.49581 17.7679C8.44296 17.9404 8.4892 17.9961 8.65472 18.0505H11.6741V20.6645H8.62294C7.14558 20.5166 6.60635 19.7915 6.49347 18.0505C6.48685 17.913 6.45773 17.8461 6.30277 17.7679Z" fill="#030303"/>
<path d="M7.41518 5.12205C7.31348 4.98075 7.18211 5.06317 7.12914 5.12205C5.31749 8.27763 1.66243 14.6382 1.53529 14.8361C1.40816 15.0339 1.56708 15.1304 1.66243 15.154H7.35162C7.4279 15.154 7.46816 15.1069 7.47875 15.0833C7.59529 14.8361 7.85379 14.3133 7.9555 14.2002C8.05721 14.0872 8.48522 12.9992 8.68651 12.4694C8.75008 12.1632 8.87721 11.5015 8.87721 11.3037C8.87721 11.0564 8.84543 10.6325 8.81365 10.2793C8.78186 9.92607 8.62295 9.04298 8.55938 8.61909C8.49581 8.19521 7.54232 5.29866 7.41518 5.12205Z" fill="#030303"/>
<path d="M6.30277 17.7679H0.16861L0.00969387 17.9445C-0.117439 20.4313 1.03735 22.466 1.63064 23.1724C3.38507 25.5179 5.87899 26.0337 6.90665 25.9983C6.93463 25.9007 16.4974 25.9998 17.9672 25.9983C19.437 25.9969 20.2214 25.3858 21.3044 23.7023C22.3875 22.0188 22.9042 21.0295 23.4657 20.0993C23.7454 19.5341 24.9383 18.8041 25.4998 18.5097C25.7309 18.4126 25.8447 18.3598 25.8812 18.2978C25.9177 18.2358 25.9339 18.197 25.9548 18.1212C25.9758 18.0453 26.0451 16.7181 25.9548 16.5669C25.8646 16.4158 25.8308 16.4078 25.7223 16.4256C25.6138 16.4434 19.2385 18.5097 19.2385 18.5097C19.2385 18.5097 18.4158 19.4076 17.9672 19.9227C17.5186 20.4378 17.1829 20.5716 16.5052 20.6645C15.8274 20.7573 14.0579 20.6645 14.0579 20.6645V18.0505H16.0284C16.0284 18.0505 16.6959 17.45 18.2532 15.2246C19.8106 12.9992 19.681 11.2065 18.7618 9.0783C17.8426 6.95008 15.4881 4.70993 14.3121 3.67377L14.0579 3.60312C14.01 3.55012 14.1366 2.06682 14.0579 1.23644C13.9791 0.406059 13.514 0.00945468 12.8819 0.00010907C12.2407 -0.00937068 11.7059 0.600613 11.6741 1.23644C11.6423 1.87226 11.6741 2.89665 11.6741 2.89665L8.55937 1.94291L8.49581 2.11953C12.9089 10.6799 10.6946 14.4979 8.49581 17.7679C8.44296 17.9404 8.4892 17.9961 8.65472 18.0505H11.6741V20.6645H8.62294C7.14558 20.5166 6.60635 19.7915 6.49347 18.0505C6.48685 17.913 6.45773 17.8461 6.30277 17.7679Z" stroke="#030303"/>
<path d="M7.41518 5.12205C7.31348 4.98075 7.18211 5.06317 7.12914 5.12205C5.31749 8.27763 1.66243 14.6382 1.53529 14.8361C1.40816 15.0339 1.56708 15.1304 1.66243 15.154H7.35162C7.4279 15.154 7.46816 15.1069 7.47875 15.0833C7.59529 14.8361 7.85379 14.3133 7.9555 14.2002C8.05721 14.0872 8.48522 12.9992 8.68651 12.4694C8.75008 12.1632 8.87721 11.5015 8.87721 11.3037C8.87721 11.0564 8.84543 10.6325 8.81365 10.2793C8.78186 9.92607 8.62295 9.04298 8.55938 8.61909C8.49581 8.19521 7.54232 5.29866 7.41518 5.12205Z" stroke="#030303"/>
</svg>
